<svg xmlns="http://www.w3.org/2000/svg" viewBox="0 0 64 64">
  <defs>
    <linearGradient id="g" x1="0" y1="0" x2="1" y2="1">
      <stop offset="0%" stop-color="#6366F1"/>
      <stop offset="100%" stop-color="#22d3ee"/>
    </linearGradient>
  </defs>
  <rect rx="12" width="64" height="64" fill="url(#g)"/>
  <path d="M18 44 L18 20 L26 20 C32 20 36 24 36 30 C36 36 32 40 26 40 L22 40 L22 44 Z M22 36 L26 36 C29 36 32 34 32 30 C32 26 29 24 26 24 L22 24 Z M40 44 L40 20 L46 20 C52 20 56 24 56 32 C56 40 52 44 46 44 Z M44 40 L46 40 C50 40 52 37 52 32 C52 27 50 24 46 24 L44 24 Z" fill="#fff"/>
</svg> 